# xmcd
#
# Track frame offsets: 
#        182
#        14933
#        25929
#        38214
#        48656
#        60352
#        73134
#        86308
#        98306
#        108875
#        120068
#        132242
#        144004
#        157161
#        169419
#        180602
#        193573
#        206864
#        218061
#        230843
#
# Disc length: 3259 seconds
#
# Revision: 0
# Processed by: cddbd v1.5.2PL0 Copyright (c) Steve Scherf et al.
# Submitted via: ExactAudioCopy v1.0b6
#
DISCID=150cb914
DTITLE=Compilation - Le Boogie Woogie par les femmes [CD1)
DYEAR=2001
DGENRE=Blues
TTITLE0=Ella Mae Morse - Cow-Cow Boogie
TTITLE1=Cleo Brown - Boogie Woogie
TTITLE2=Marylin Scott - Beer Bottle Boogie
TTITLE3=Memphis Minnie - Shout the Boogie
TTITLE4=Gladys Bentley - Boogie'n My Boogie
TTITLE5=Madonna Martin - Madonna Boogie
TTITLE6=Dorothy Donegan - Dorothy's Boogie Woogie
TTITLE7=Helen Humes - Central Avenue Boogie
TTITLE8=Mabel Scott - Boogie Woogie Santa claus
TTITLE9=Marion Abernathy - My Man Boogie
TTITLE10=Lilette Thomas - Boogie Woogie Time Down South
TTITLE11=Martha Davis - Same Old Boogie
TTITLE12=Ella Fitzgerald and Ink Spots - Cow-Cow Boogie
TTITLE13=Hadda Brooks - Riding The Boogie
TTITLE14=Hadda Brooks - Society Boogie
TTITLE15=Hadda Brooks - Grieg's Concerto Boogie In A Minor
TTITLE16=Hadda Brooks - Bully Wully Boogie
TTITLE17=Hadda Brooks - Variety Boogie
TTITLE18=Hadda Brooks - Juke Box Boogie
TTITLE19=Hadda Brooks - Humoresque Boogie
EXTD=
EXTT0=
EXTT1=
EXTT2=
EXTT3=
EXTT4=
EXTT5=
EXTT6=
EXTT7=
EXTT8=
EXTT9=
EXTT10=
EXTT11=
EXTT12=
EXTT13=
EXTT14=
EXTT15=
EXTT16=
EXTT17=
EXTT18=
EXTT19=
PLAYORDER=
